<?xml version="1.0" standalone="yes"?>
<svg xmlns="http://www.w3.org/2000/svg" width="840" height="442">
<path style="fill:#f1f1f2; stroke:none;" d="M0 0L0 442L840 442L840 0L0 0z"/>
<path style="fill:#cfccc5; stroke:none;" d="M486 152C500.322 176.777 529.882 193.752 548 216L537 216.048L525 220C521.916 223.619 518.789 225.262 514 225C508.59 234.705 493.004 242.954 483 248L485 252L482 255L479 254L477 261L469 262L468 262L470 268L466 266L463 275L454 275L452 282L447 281L445 288L446 282L443 283C443.283 279.919 443.03 278.856 440 278L437 288L438 288L439 286L436 294L435 294L430 290L431 293C425.448 297.007 434.589 303.44 438.005 305.407C448.302 311.341 458.598 317.497 468.995 323.259C472.285 325.083 476.059 329.334 480 329.185C485.783 328.967 488.927 322.978 492.014 319.019C494.652 315.634 497.515 313.403 498 309L501 310C516.151 292.725 539.218 280.548 557 265.916C562.036 261.772 575.631 254.264 576.068 247.089C576.249 244.113 573.171 240.661 572 238C575.161 239.813 579.222 244.155 583 244.052C587.842 243.921 593.474 237.466 597 234.576C608.328 225.292 619.501 215.861 631 206.789C683.651 165.253 735.548 120.452 783 73L769 89L771 90L771 91L767 91L769 96L763 95C764.595 100.52 763.118 108.048 757 110L758 116C753.791 117.429 752.652 120.823 752 125L756 126L757 124L761 118L757 133C752.164 134.359 754.014 138.094 755 142L750 141L753 145L750 151C757.128 146.105 762.484 133.445 766.861 126C777.426 108.032 787.667 89.5639 798.861 72C804.301 63.4644 812.869 53.5776 811 43L710 76.9969L486 152z"/>
<path style="fill:#babab5; stroke:none;" d="M721 76L721 78L719 77L720 80L718 84L718 85L715 88L708 86L710 89L707 89L708 91L707 91L692 95L691 95L692 99L685 106L681 105L681 108L673 111L674 113C669.529 114.479 667.942 116.408 667 121L666 121L666 117L659 127L657 127L646 100C636.21 102.056 636.075 115.765 638 125L634 127L636 129L635 131L637 135L639 134L638 137L640 136L640 137C639.501 140.314 640.059 141.38 643 143L643 144L640 145L640 146L642 147L644 147L645 145C646.942 149.576 650.807 152.615 652.943 157.039C654.354 159.963 655.184 163.112 656.693 166C658.375 169.219 667.833 182.549 667.301 170.985C666.886 161.968 654.561 139.342 665 134L664 138L666 141L667 141L668 137C671.398 139.521 675.406 140.765 677 136C681.249 138.84 678.575 139.256 678 143C681.988 141.021 683.99 141.111 688 143L687 135L688 138L696 139L697 139L706 137L705 134L712 132L714 126L716 129L717 129L716 125L719 126L724 124L723 121C731.544 118.856 740.358 108.081 747 102.421C765.997 86.2359 788.574 68.5604 803 48L746 66L726 73L721 76z"/>
<path style="fill:#f1f1f2; stroke:none;" d="M796 60L797 61L796 60z"/>
<path style="fill:#cfccc5; stroke:none;" d="M30 102L23 83C51.9011 111.662 96.2737 124.94 130 147.255C141.179 154.652 161.741 160.708 163 174L164 171L165 171L168 180L169 177L166 177L169 176L171 169C175.921 173.533 186.803 179.669 186 187L190 188L187 198L187 205C190.513 204.353 193.995 206.423 190 209C189.193 205.255 187.096 206.893 184 207L183 210L180 209L173 221L174 221L175 221C176.102 217.239 178.492 216.971 182 218L185 215L184 213L188 212L189 214L189 215L178 224L175 223L174 227L176 225L177 225L182 227L182 228L181 231L176 230L178 235L173 234L174 230C171.589 232.199 172.695 234.258 174 237L182 237L180 239L181 243C177.791 241.668 176.529 241.583 174 244L176 249L180 249L177 251L182 256L181 260L179 260L178 257L173 258C173.577 255.289 173.768 254.605 171 254L175 265L182 264L177 270L177 271L181 270L183 287C187.145 289.605 195.762 297.984 192 303L197 304C197.047 309.664 196.854 316.656 202 320C201.579 325.206 204.071 327.704 209 329C209.939 337.388 220.562 345.904 226 352L223 353L227 354C230.189 364.341 245.079 364.999 254 365C281.025 365.002 307.96 364 335 364C367.644 364 402.496 365.923 435 362.83C500.096 356.635 566.049 343.968 630 330.715C642.937 328.034 653.191 320.609 660.985 310C666.321 302.736 669.804 290.334 680 290L680 294C688.499 293.995 698.343 296.707 701 287L718.397 288.603L722 298L740 300C737.632 309.066 728.189 314.572 720 318L720 312L707 319L707 320L716 320L716 321L700 328L700 324L682.313 332.213L676.853 338.682L660 341C658.686 349.312 647.055 350.54 640 352L640 348L620 351L620 356L600 358L600 354L580 356L580 360L550 359L550 360L560 360L540 365L540 361L520 363L520 367L500 369L500 365L480 367L480 371L460 373L460 370C454.366 370.071 442.151 368.884 440 375L420 376L420 373L400 374C396.852 379.389 383.191 380.645 380 375L360 376L360 380C354.324 380 343.401 382.246 340 377C332.183 378.861 322.023 379.699 314 379.981C307.876 380.197 301.795 378.414 299 385L280 386L280 381L260 382L260 386C253.66 386 242.36 388.47 240 381L200 374L200 378C193.095 377.703 181.302 377.171 180 369L160 364L160 369C153.325 368.031 143.331 366.367 140 360L147 360L147 359L143 359L140 357C136.501 362.397 124.271 359.683 121.028 354.61C118.707 350.978 120 344.154 120 340C128.53 340 139.867 343.196 140 332L160 331L160 336L180 334C181.303 329.708 183.735 329.139 188 329C186.096 319.125 175.686 304.352 168 298L182 320C171.683 313.031 152.146 320 140 320L140 327L120 329L120 321C114.766 321 104.556 319.489 101.028 324.51C98.031 328.776 101.836 334.61 96.8519 338.258C92.5767 341.386 85.0085 340 80 340L77 333L75 339L80 340C80 356.145 83.7239 360 100 360C100.311 369.462 112.11 370.98 120 372L120 364L140 369C140.053 384.023 153.163 375.601 161 383L179 387L180 380L200 383C200.039 394.073 210.625 393.807 220 394L220 387L236.852 389.6L241.599 395.972L260 398L260 391L280 390L280 397C288.254 397 299.871 399.787 300 389L320 387L321 395L340 393L340 386L360 384C360.141 395.919 379.869 393.989 380 383L400 382C400.257 389.831 412.622 391.247 418.401 386.821C421.002 384.829 420.311 381.345 424.059 380.318C428.86 379.002 435.038 380 440 380L440 386L460 384L460 380L497 381L497 380L480 380L480 375L500 373L500 380C508.524 379.657 519.872 381.762 520 371L540 369C540.265 377.063 551.597 377.585 557.683 373.682C560.538 371.851 559.944 367.903 563.483 366.724C568.383 365.091 574.864 365.043 580 365C580.344 375.476 592.609 370.317 600 370C600.347 359.347 611.068 361.889 619 360L620 367L640 364L640 360L656.852 359.106L662.318 350.818L680 343L680 351L688 349C696.487 341.337 709.03 341.356 717.682 334.637C721.846 331.403 719.651 325.713 725.019 322.533C729.401 319.938 736.86 318.156 740 323L747 321L747 320L740 320C740.272 311.676 751.975 301.238 760 300L760 311L772 301L760 300L760 280L767 280L760 276L760 280L740 280C739.858 268.02 720.348 269.408 720 280L700 280L700 276C693.221 276.004 684.883 275.946 679.093 279.97C665.345 289.526 661.89 310.614 648 321.319C632.127 333.554 604.922 330.36 586.05 332.605C576.183 333.778 565.03 338.59 555 337L552 341L542 341.711L519 343L512 345L511 345C503.745 341.086 494.525 346.392 487.019 342.097C477.205 336.483 470.271 326.175 460 320.336C424.627 300.228 386.976 284.478 351 265.738C322.708 251 295.767 233.223 268 217.525C231.032 196.626 191.975 178.966 155 157.873C126.919 141.853 98.5105 126.14 70 110.886C56.3138 103.563 36.2329 95.8351 27 83L31 83C29.7273 79.178 24.6265 77.7921 22.6073 82.2785C19.7072 88.7221 25.1692 98.2603 30 102M45 82L46 83L45 82z"/>
<path style="fill:#babab5; stroke:none;" d="M23 83C23.8214 102.082 42.2822 120.036 53 135L54 135L25 87L47.625 105.213L66 124C64.4562 130.796 65.726 146.326 73 149C73.5513 157.457 80.1639 165.856 84.7469 172.715C93.2968 185.509 102.512 198.55 110 212L77 169C99.7213 208.879 131.301 245.432 157.721 283C167.558 296.988 182.8 312.574 188 329C183.566 329.053 180.802 329.195 180 334L160 336L160 331L140 332C139.645 342.9 128.155 340 120 340C120 343.917 118.402 352.252 120.722 355.528C123.636 359.643 138.695 363.091 140 357L143 359L147 359L147 360L140 360C142.141 366.799 153.609 368.455 160 369L160 364L180 369C180.67 377.606 193.004 377.856 200 378L200 374C212.333 378.62 226.878 380.729 240 381C241.346 388.75 253.947 386 260 386L260 382L280 381L280 386L299 385C305.285 374.915 329.274 380.17 340 377C341.163 382.429 355.213 380 360 380L360 376L380 375C381.971 380.919 398.006 379.671 400 374L420 373L420 376L440 375C443.348 369.27 453.927 370.227 460 370L460 373L480 371L480 367L500 365L500 369L520 367L520 363L540 361L540 365C545.53 364.301 556.858 364.846 560 360L550 360L550 359L580 360L580 356L600 354L600 358L620 356L620 351L640 348L640 352C647.205 351.029 659.336 349.601 660 341L676.853 339.106L682.313 332.814L700 324L700 328L716 321L716 320L707 320L707 319L720 312L720 318C728.574 315.525 738.513 309.353 740 300L722 298L718.973 288.603L701 287C697.538 296.221 688.618 293.977 680 294L680 290C669.958 290.12 663.31 303.392 660 312L661 312C666.156 304.857 671.858 305 680 305C682.392 297.119 693.581 300.542 700 301C700 305.452 701.349 312.609 698.682 316.442C694.993 321.744 688.079 318.525 683.147 320.742C678.969 322.621 666.973 342.257 660 333L641 339L641 340L649 340L649 341C645.417 341.807 642.326 343.36 640 340L614.982 347.867L580 349L580 352C567.515 352.985 554.435 352.661 542.174 355.266C535.263 356.735 527.011 361.464 520 358L512 359L512 360L515 360L515 361L500 363L500 361C459.177 368.579 417.125 372.131 375.961 371.093C365.749 370.836 348.803 378.669 340 372L305.289 376.12L292.999 374.09L260 378L260 375L240 374L240 377L220 374L220 370L200 366C196.681 370.759 185.256 365.229 180 365L183 360L183 359L162 359L160 343L180 340L180 345L197 342.889L208 349.846L238 364.532L274 366L274 365C260.045 365 234.792 369.206 227 354L223 353L226 352L209 329C204.706 327.162 201.837 324.914 202 320C197.528 315.732 197.123 309.964 197 304L192 303C195.845 297.35 187.816 289.632 183 287C186.777 281.224 181.76 275.947 181 270L177 271L177 270L182 264L175 265L171 254L173 258L178 257L179 260L181 260L182 256L177 251L180 249L176 249L174 244L181 243L180 239L182 239L182 237L174 237L174 230L173 234L178 235L176 230L181 231L182 228L182 227L177 225L176 225L176 227L174 227L175 223L178 224L189 215L188 212L184 213L185 215L182 218C178.338 216.639 175.8 216.871 175 221L174 221L173 221L180 209L183 210L184 207L190 209L193 208C191.259 205.162 190.299 204.492 187 205L187 198L190 188L186 187C187.737 179.749 176.418 172.584 171 169L166 177L169 177L168 180L165 171L164 171L163 174L162 171C166.239 167.723 159.792 164.697 156.961 162.755C148.685 157.08 139.399 152.812 131 147.255C95.998 124.096 57.3752 107.12 23 83z"/>
<path style="fill:#999a99; stroke:none;" d="M25 87C29.1296 102.129 39.3384 114.415 48.2909 127C60.3323 143.927 71.8039 161.269 84.1157 178C92.2152 189.007 99.3128 203.355 110 212C101.739 190.206 76.849 172.513 73 149C66.1927 145.181 64.8653 131.239 66 124L25 87z"/>
<path style="fill:#f1f1f2; stroke:none;" d="M771 91L772 92L771 91z"/>
<path style="fill:#cfccc5; stroke:none;" d="M761 97L762 98L761 97M762 99L763 100L762 99M694 100L695 101L694 100M30 103L31 104L30 103M31 104L32 105L31 104M32.3333 105.667L32.6667 106.333L32.3333 105.667M758 106L759 107L758 106M33 107L34 108L33 107M34 108L35 109L34 108M35 110L36 111L35 110M36 111L37 112L36 111M675 111L676 112L675 111M37 113L38 114L37 113M38 114L39 115L38 114M39.3333 115.667L39.6667 116.333L39.3333 115.667z"/>
<path style="fill:#f1f1f2; stroke:none;" d="M759 118L762 115L759 118z"/>
<path style="fill:#cfccc5; stroke:none;" d="M40 117L41 118L40 117z"/>
<path style="fill:#f1f1f2; stroke:none;" d="M756 117L757 118L756 117z"/>
<path style="fill:#cfccc5; stroke:none;" d="M41 119L42 120L41 119M42 120L43 121L42 120z"/>
<path style="fill:#babab5; stroke:none;" d="M659 120L660 121L659 120z"/>
<path style="fill:#cfccc5; stroke:none;" d="M43 121L44 122L43 121M721 121L722 122L721 121z"/>
<path style="fill:#f1f1f2; stroke:none;" d="M755 121L756 122L755 121z"/>
<path style="fill:#cfccc5; stroke:none;" d="M758 122L759 123L758 122M44 123L45 124L44 123M714 123L715 124L714 123M45 124L46 125L45 124M46.3333 125.667L46.6667 126.333L46.3333 125.667M704 125L705 126L704 125M47 127L48 128L47 127M660.333 127.667L660.667 128.333L660.333 127.667M662 127L663 128L662 127M48 128L49 129L48 128M757 128L758 129L757 128M436 129L437 130L436 129M664 129L662 130L663 134L664 129z"/>
<path style="fill:#babab5; stroke:none;" d="M713 129L714 130L713 129z"/>
<path style="fill:#cfccc5; stroke:none;" d="M49 130L50 131L49 130z"/>
<path style="fill:#999a99; stroke:none;" d="M68 131L68 132L72 132L68 131z"/>
<path style="fill:#cfccc5; stroke:none;" d="M668 130L670 132L668 130M50 131L51 132L50 131M51.3333 132.667L51.6667 133.333L51.3333 132.667z"/>
<path style="fill:#babab5; stroke:none;" d="M663 132L664 133L663 132z"/>
<path style="fill:#cfccc5; stroke:none;" d="M706 132L707 133L706 132M432 133L433 134L432 133M695 133L696 134L695 133M52 134L53 135L52 134M53 135L54 136L53 135z"/>
<path style="fill:#babab5; stroke:none;" d="M54 136L66 152L54 136z"/>
<path style="fill:#cfccc5; stroke:none;" d="M429 136L430 137L429 136M682 136L683 137L682 136M54 137L55 138L54 137z"/>
<path style="fill:#f1f1f2; stroke:none;" d="M755.667 137.333L756.333 137.667L755.667 137.333z"/>
<path style="fill:#cfccc5; stroke:none;" d="M55 138L56 139L55 138M674 138L675 139L674 138M682 138L683 139L682 138z"/>
<path style="fill:#babab5; stroke:none;" d="M699 138L700 139L699 138z"/>
<path style="fill:#cfccc5; stroke:none;" d="M56 140L57 141L56 140z"/>
<path style="fill:#babab5; stroke:none;" d="M698.333 140.667L698.667 141.333L698.333 140.667z"/>
<path style="fill:#cfccc5; stroke:none;" d="M57.3333 141.667L57.6667 142.333L57.3333 141.667z"/>
<path style="fill:#babab5; stroke:none;" d="M638 142L639 143L638 142M696 142L697 143L696 142z"/>
<path style="fill:#cfccc5; stroke:none;" d="M58 143L59 144L58 143z"/>
<path style="fill:#babab5; stroke:none;" d="M623 143L624 144L623 143z"/>
<path style="fill:#f1f1f2; stroke:none;" d="M753 143L754 144L753 143z"/>
<path style="fill:#cfccc5; stroke:none;" d="M59 144L59 146L61 146L59 144z"/>
<path style="fill:#babab5; stroke:none;" d="M671 144L672 145L671 144z"/>
<path style="fill:#cfccc5; stroke:none;" d="M749 145L750 146L749 145M61 147L62 148L61 147z"/>
<path style="fill:#babab5; stroke:none;" d="M638 147L639 148L638 147z"/>
<path style="fill:#cfccc5; stroke:none;" d="M62 148L63 149L62 148M749 148L750 149L749 148M63 150L64 151L63 150z"/>
<path style="fill:#999a99; stroke:none;" d="M73 150L74 151L73 150z"/>
<path style="fill:#cfccc5; stroke:none;" d="M64 151L65 152L64 151M65 152L66 153L65 152z"/>
<path style="fill:#babab5; stroke:none;" d="M66 153L71 159L66 153z"/>
<path style="fill:#cfccc5; stroke:none;" d="M66 154L67 155L66 154M67 155L68 156L67 155M68 157L69 158L68 157M746 157L741 164L739 171L740 171L746 157M69 158L70 159L69 158M70 159L76 170L77 170L70 159z"/>
<path style="fill:#babab5; stroke:none;" d="M71 160L72 161L71 160M72 161L73 162L72 161M73 163L74 164L73 163M74 164L75 165L74 164M75.3333 165.667L75.6667 166.333L75.3333 165.667M76 167L77 168L76 167z"/>
<path style="fill:#cfccc5; stroke:none;" d="M77 170L78 171L77 170M78.3333 171.667L78.6667 172.333L78.3333 171.667M738.333 172.667L738.667 173.333L738.333 172.667M79 173L80 174L79 173M80 174L81 175L80 174M306 184C302.725 185.717 302.151 187.459 303 191C299.58 193.304 298.735 195.942 299 200L294 202L293 210L295 209L289 215L287 224C294.573 229.177 308.672 240.445 318 240.932C322.703 241.177 326.156 236.251 329.08 233.296C336.254 226.047 346.12 219.796 350 210L348 204L351 204L351 203L347 202L348 194L346 194L346 193L347 192L343 194L341 185L336 184L337 180C331.37 179.526 303.282 165.405 306 184M81 175L82 176L81 175z"/>
<path style="fill:#f1f1f2; stroke:none;" d="M319 176L320 177L319 176z"/>
<path style="fill:#cfccc5; stroke:none;" d="M82 177L83 178L82 177M735.333 177.667L735.667 178.333L735.333 177.667M83 178L84 179L83 178M84.3333 179.667L84.6667 180.333L84.3333 179.667M85 181L86 182L85 181M86.3333 182.667L86.6667 183.333L86.3333 182.667M166.667 183.333L167.333 183.667L166.667 183.333M87 184L88 185L87 184M184.667 184.333L185.333 184.667L184.667 184.333M88 185L89 186L88 185M168 185L168 187L170 187L170 185L168 185M89 187L90 188L89 187M90 188L91 189L90 188M91.3333 189.667L91.6667 190.333L91.3333 189.667z"/>
<path style="fill:#babab5; stroke:none;" d="M191 189L191 192L192 192L191 189z"/>
<path style="fill:#cfccc5; stroke:none;" d="M92 191L93 192L92 191z"/>
<path style="fill:#babab5; stroke:none;" d="M200 191L201 192L200 191z"/>
<path style="fill:#f1f1f2; stroke:none;" d="M340 191L341 192L340 191z"/>
<path style="fill:#cfccc5; stroke:none;" d="M93.3333 192.667L93.6667 193.333L93.3333 192.667M170 192L173 194L170 192z"/>
<path style="fill:#babab5; stroke:none;" d="M191 193L190 195L191 193z"/>
<path style="fill:#cfccc5; stroke:none;" d="M94 194L95 195L94 194z"/>
<path style="fill:#f1f1f2; stroke:none;" d="M343 196L344 197L346 194L343 196z"/>
<path style="fill:#cfccc5; stroke:none;" d="M95.3333 195.667L95.6667 196.333L95.3333 195.667M344 195L345 196L344 195M96 197L97 198L96 197M167 197L169 199L169 197L167 197M97 198L98 199L97 198z"/>
<path style="fill:#babab5; stroke:none;" d="M194 198L195 199L194 198z"/>
<path style="fill:#cfccc5; stroke:none;" d="M98 199L99 200L98 199M175.333 200.667L175.667 201.333L175.333 200.667M99 201L100 202L99 201M100.333 202.667L100.667 203.333L100.333 202.667M101 204L102 205L101 204M102 205L104 208L102 205M172 205L172 207L175 207L175 205L172 205M104 208L105 209L104 208M105.333 209.667L105.667 210.333L105.333 209.667M172 209L173 210L172 209z"/>
<path style="fill:#babab5; stroke:none;" d="M185 210L186 211L185 210z"/>
<path style="fill:#cfccc5; stroke:none;" d="M106 211L107 212L106 211M174 211L176 213L174 211M107 212L108 213L107 212z"/>
<path style="fill:#999a99; stroke:none;" d="M110 212L118 223L110 212z"/>
<path style="fill:#babab5; stroke:none;" d="M192 212L190 213L190 214L192 212z"/>
<path style="fill:#f1f1f2; stroke:none;" d="M346 212L347 213L346 212z"/>
<path style="fill:#cfccc5; stroke:none;" d="M108.333 213.667L108.667 214.333L108.333 213.667M171 213L172 214L171 213M109 215L110 216L109 215M110.333 216.667L110.667 217.333L110.333 216.667M172 216L173 217L172 216M111 218L112 219L111 218M112 219L113 220L112 219M113 220L114 221L113 220M114 222L115 223L114 222z"/>
<path style="fill:#babab5; stroke:none;" d="M182 222L183 223L182 222z"/>
<path style="fill:#cfccc5; stroke:none;" d="M115 223L116 224L115 223M116.333 224.667L116.667 225.333L116.333 224.667z"/>
<path style="fill:#999a99; stroke:none;" d="M118 224L120 226L118 224z"/>
<path style="fill:#cfccc5; stroke:none;" d="M117 226L118 227L117 226M118 227L119 228L118 227M119.333 228.667L119.667 229.333L119.333 228.667M176 228L177 229L176 228M120.333 230.667L120.667 231.333L120.333 230.667M121 232L122 233L121 232M122 233L123 234L122 233M123.333 234.667L123.667 235.333L123.333 234.667z"/>
<path style="fill:#babab5; stroke:none;" d="M174 235L175 236L174 235M179 235L180 236L179 235M182 235L183 236L182 235z"/>
<path style="fill:#f1f1f2; stroke:none;" d="M569.667 235.333L570.333 235.667L569.667 235.333z"/>
<path style="fill:#cfccc5; stroke:none;" d="M124 236L125 237L124 236M125.333 237.667L125.667 238.333L125.333 237.667M126 239L127 240L126 239M127 240L128 241L127 240M128 241L129 242L128 241M129 243L130 244L129 243z"/>
<path style="fill:#babab5; stroke:none;" d="M179 243L180 244L179 243z"/>
<path style="fill:#cfccc5; stroke:none;" d="M130 244L131 245L130 244M131.333 245.667L131.667 246.333L131.333 245.667M132 247L133 248L132 247z"/>
<path style="fill:#babab5; stroke:none;" d="M177 247L178 248L177 247z"/>
<path style="fill:#cfccc5; stroke:none;" d="M133 248L134 249L133 248z"/>
<path style="fill:#f1f1f2; stroke:none;" d="M490 248L491 249L490 248z"/>
<path style="fill:#cfccc5; stroke:none;" d="M134 250L135 251L134 250M135 251L136 252L135 251M136 253L137 254L136 253z"/>
<path style="fill:#babab5; stroke:none;" d="M182 253L183 254L182 253z"/>
<path style="fill:#cfccc5; stroke:none;" d="M137 254L138 255L137 254M138.333 255.667L138.667 256.333L138.333 255.667M175 255L176 256L175 255M477 256L478 257L477 256M139 257L140 258L139 257z"/>
<path style="fill:#babab5; stroke:none;" d="M184 257L185 258L184 257z"/>
<path style="fill:#cfccc5; stroke:none;" d="M140.333 258.667L140.667 259.333L140.333 258.667M141 260L142 261L141 260M142 261L143 262L142 261M143.333 262.667L143.667 263.333L143.333 262.667M144 264L145 265L144 264M145 265L146 266L145 265M146 267L147 268L146 267M178 267L179 268L178 267M147 268L148 269L147 268z"/>
<path style="fill:#babab5; stroke:none;" d="M182 268L183 269L182 268z"/>
<path style="fill:#cfccc5; stroke:none;" d="M148.333 269.667L148.667 270.333L148.333 269.667M149 271L150 272L149 271M150.333 272.667L150.667 273.333L150.333 272.667z"/>
<path style="fill:#babab5; stroke:none;" d="M182 272L183 273L182 272M184 275L187 273L184 275z"/>
<path style="fill:#cfccc5; stroke:none;" d="M151 274L152 275L151 274M152 275L153 276L152 275M153.333 276.667L153.667 277.333L153.333 276.667M154 278L155 279L154 278z"/>
<path style="fill:#babab5; stroke:none;" d="M185 278L186 279L185 278z"/>
<path style="fill:#cfccc5; stroke:none;" d="M155.333 279.667L155.667 280.333L155.333 279.667z"/>
<path style="fill:#f1f1f2; stroke:none;" d="M680 280L680 285C685.399 284.796 698.263 285.937 700 280L680 280M720 280L720 282L740 283L740 280L720 280z"/>
<path style="fill:#cfccc5; stroke:none;" d="M156 281L158 284L156 281M158 284L159 285L158 284M159 285L161 288L159 285M161 288L162 289L161 288M162 289L163 290L162 289M163.333 290.667L163.667 291.333L163.333 290.667M182 290L183 291L182 290M164 292L165 293L164 292z"/>
<path style="fill:#f1f1f2; stroke:none;" d="M438 292L439 293L438 292z"/>
<path style="fill:#cfccc5; stroke:none;" d="M165.333 293.667L165.667 294.333L165.333 293.667z"/>
<path style="fill:#f1f1f2; stroke:none;" d="M433 293L430 294L430 295L433 293z"/>
<path style="fill:#babab5; stroke:none;" d="M740 294L741 300L742 300L743 294L740 294z"/>
<path style="fill:#cfccc5; stroke:none;" d="M166 295L167 296L166 295M167 296L168 297L167 296M188 296L190 299L188 296M191.333 297.667L191.667 298.333L191.333 297.667M426.667 297.333L427.333 297.667L426.667 297.333M190 300L191 301L190 300z"/>
<path style="fill:#999a99; stroke:none;" d="M680 305C664.361 305 653.791 314.895 644 327L659 314L660 314L667 320L660 327L660 325C651.823 327.784 644.294 332.437 636 334.9C622.371 338.946 607.818 339.368 594 341.808C566.239 346.71 538.942 352.212 511 356.13C485.353 359.727 459.869 365.013 434 366.91C392.337 369.964 350.632 366.933 309 370.83C301.721 371.512 294.359 369.682 287 370.04C266.606 371.031 243.996 373.9 224.039 366.758C213.611 363.026 198.53 361.358 201 348C218.887 358.401 237.351 367 258 367L258 366C241.303 366 228.648 360.61 214 352.691C208.889 349.929 203.427 344.291 198 342.692C192.757 341.147 185.313 344.314 180 345L180 340L160 343L162 359L183 359L183 360L180 360L180 365C184.673 365.236 198.768 371.747 200 366L220 370L220 374L240 377L240 374L260 375L260 378L293.996 374.108L305.015 376.272L340 372C346.36 379.279 367.354 370.825 375.961 371.218C415.953 373.047 460.589 370.387 500 361L500 363L515 361L515 360L512 360L512 359L520 358L535.7 357.792L580 352L580 349L615.946 347.867L640 340C641.012 344.721 645.562 342.098 649 341L649 340L641 340L641 339L660 333C661.192 338.534 674.558 331.761 677.75 329.139C680.254 327.083 679.568 323.517 682.111 321.5C685.902 318.493 691.614 320.891 695.917 319.278C702.329 316.873 700 306.461 700 301C693.952 300.248 681.351 296.904 680 305z"/>
<path style="fill:#f1f1f2; stroke:none;" d="M488 307L489 308L488 307z"/>
<path style="fill:#cfccc5; stroke:none;" d="M194 313L195 314L194 313z"/>
<path style="fill:#babab5; stroke:none;" d="M658 313L659 314L658 313M657 314L658 315L657 314z"/>
<path style="fill:#717172; stroke:none;" d="M659 314C642.457 330.406 628.405 330.824 607 335.001C587.331 338.839 567.653 342.67 548 346.6C508.657 354.468 469.064 362.167 429 364.91C398.966 366.967 368.111 364.998 338 365C315.023 365.001 292.039 366 269 366C260.207 366 250.697 368.391 242 366.62C228.202 363.811 214.082 353.439 201 348C197.806 361.422 213.471 363.677 224.039 367.076C244.66 373.71 267.059 371.058 288 370.04C295.06 369.697 301.97 371.389 309 370.91C350.988 368.051 393.007 369.988 435 366.91C483.936 363.323 535.182 355.423 583 344.17C609.806 337.861 634.46 337.102 660 325L660 327L667 320L659 314z"/>
<path style="fill:#babab5; stroke:none;" d="M656 315L657 316L656 315M655 316L656 317L655 316M654 317L655 318L654 317M653 318L654 319L653 318z"/>
<path style="fill:#cfccc5; stroke:none;" d="M133 319L133 320L139 320L133 319z"/>
<path style="fill:#babab5; stroke:none;" d="M202 319L203 320L202 319M652 319L653 320L652 319z"/>
<path style="fill:#f1f1f2; stroke:none;" d="M160 320L160 326L180 325L180 320L160 320z"/>
<path style="fill:#babab5; stroke:none;" d="M648 322L649 323L648 322M647 323L648 324L647 323M205 324L206 325L205 324M644 325L645 326L644 325M643 326L644 327L643 326M640.667 327.333L641.333 327.667L640.667 327.333z"/>
<path style="fill:#999a99; stroke:none;" d="M642 327L643 328L642 327z"/>
<path style="fill:#babab5; stroke:none;" d="M638 328L639 329L638 328z"/>
<path style="fill:#999a99; stroke:none;" d="M639.667 328.333L640.333 328.667L639.667 328.333z"/>
<path style="fill:#babab5; stroke:none;" d="M634.667 329.333L635.333 329.667L634.667 329.333z"/>
<path style="fill:#999a99; stroke:none;" d="M636 329L636 330L639 330L636 329z"/>
<path style="fill:#babab5; stroke:none;" d="M631.667 330.333L632.333 330.667L631.667 330.333z"/>
<path style="fill:#999a99; stroke:none;" d="M633 330L633 331L636 331L633 330z"/>
<path style="fill:#babab5; stroke:none;" d="M625 331L625 332L630 332L625 331z"/>
<path style="fill:#999a99; stroke:none;" d="M630 331L630 332L633 332L630 331z"/>
<path style="fill:#f1f1f2; stroke:none;" d="M458 337L463 343L475 336C469.279 330.296 463.937 333.249 458 337z"/>
<path style="fill:#babab5; stroke:none;" d="M616 332L616 333L624 333L616 332z"/>
<path style="fill:#999a99; stroke:none;" d="M624 332L624 333L629 333L624 332z"/>
<path style="fill:#babab5; stroke:none;" d="M608 333L608 334L612 334L608 333z"/>
<path style="fill:#999a99; stroke:none;" d="M612 333L612 334L620 334L612 333z"/>
<path style="fill:#babab5; stroke:none;" d="M602 334L602 335L606 335L602 334z"/>
<path style="fill:#999a99; stroke:none;" d="M606 334L606 335L610 335L606 334z"/>
<path style="fill:#babab5; stroke:none;" d="M597 335L597 336L601 336L597 335z"/>
<path style="fill:#999a99; stroke:none;" d="M601 335L601 336L605 336L601 335z"/>
<path style="fill:#f1f1f2; stroke:none;" d="M689 339L689 340L700 340L700 335L689 339z"/>
<path style="fill:#babab5; stroke:none;" d="M592 336L592 337L596 337L592 336z"/>
<path style="fill:#999a99; stroke:none;" d="M596 336L596 337L600 337L596 336z"/>
<path style="fill:#f1f1f2; stroke:none;" d="M455 337L456 338L455 337z"/>
<path style="fill:#babab5; stroke:none;" d="M587 337L587 338L590 338L587 337z"/>
<path style="fill:#999a99; stroke:none;" d="M590 337L590 338L594 338L590 337z"/>
<path style="fill:#babab5; stroke:none;" d="M117 338L117 340L120 340L120 338L117 338z"/>
<path style="fill:#999a99; stroke:none;" d="M182 339L182 340L197 340L182 339z"/>
<path style="fill:#f1f1f2; stroke:none;" d="M480 338L481 339L480 338z"/>
<path style="fill:#babab5; stroke:none;" d="M582 338L582 339L585 339L582 338z"/>
<path style="fill:#999a99; stroke:none;" d="M585 338L585 339L589 339L585 338z"/>
<path style="fill:#babab5; stroke:none;" d="M578 339L578 340L581 340L578 339z"/>
<path style="fill:#999a99; stroke:none;" d="M581 339L581 340L585 340L581 339z"/>
<path style="fill:#babab5; stroke:none;" d="M573 340L573 341L576 341L573 340z"/>
<path style="fill:#999a99; stroke:none;" d="M576 340L576 341L580 341L576 340z"/>
<path style="fill:#f1f1f2; stroke:none;" d="M458 341L459 342L458 341z"/>
<path style="fill:#babab5; stroke:none;" d="M568 341L568 342L571 342L568 341z"/>
<path style="fill:#999a99; stroke:none;" d="M571 341L571 342L575 342L571 341z"/>
<path style="fill:#babab5; stroke:none;" d="M563 342L563 343L566 343L563 342z"/>
<path style="fill:#999a99; stroke:none;" d="M566 342L566 343L570 343L566 342z"/>
<path style="fill:#babab5; stroke:none;" d="M558 343L558 344L561 344L558 343z"/>
<path style="fill:#999a99; stroke:none;" d="M561 343L561 344L565 344L561 343z"/>
<path style="fill:#babab5; stroke:none;" d="M553 344L553 345L556 345L553 344z"/>
<path style="fill:#999a99; stroke:none;" d="M556 344L556 345L560 345L556 344z"/>
<path style="fill:#f1f1f2; stroke:none;" d="M489 345L490 346L489 345z"/>
<path style="fill:#babab5; stroke:none;" d="M547 345L547 346L550 346L547 345z"/>
<path style="fill:#999a99; stroke:none;" d="M550 345L550 346L554 346L550 345z"/>
<path style="fill:#babab5; stroke:none;" d="M542 346L542 347L545 347L542 346z"/>
<path style="fill:#999a99; stroke:none;" d="M545 346L545 347L549 347L545 346z"/>
<path style="fill:#babab5; stroke:none;" d="M536 347L536 348L540 348L536 347z"/>
<path style="fill:#999a99; stroke:none;" d="M540 347L540 348L544 348L540 347z"/>
<path style="fill:#babab5; stroke:none;" d="M531 348L531 349L535 349L531 348z"/>
<path style="fill:#999a99; stroke:none;" d="M535 348L535 349L539 349L535 348z"/>
<path style="fill:#babab5; stroke:none;" d="M526 349L526 350L530 350L526 349z"/>
<path style="fill:#999a99; stroke:none;" d="M530 349L530 350L534 350L530 349z"/>
<path style="fill:#babab5; stroke:none;" d="M521 350L521 351L524 351L521 350z"/>
<path style="fill:#999a99; stroke:none;" d="M524 350L524 351L529 351L524 350z"/>
<path style="fill:#babab5; stroke:none;" d="M516 351L516 352L519 352L516 351z"/>
<path style="fill:#999a99; stroke:none;" d="M519 351L519 352L524 352L519 351z"/>
<path style="fill:#babab5; stroke:none;" d="M510 352L510 353L514 353L510 352z"/>
<path style="fill:#999a99; stroke:none;" d="M514 352L514 353L519 353L514 352z"/>
<path style="fill:#f1f1f2; stroke:none;" d="M100 353L100 360L112 360L112 359L100 353z"/>
<path style="fill:#babab5; stroke:none;" d="M505 353L505 354L509 354L505 353z"/>
<path style="fill:#999a99; stroke:none;" d="M509 353L509 354L514 354L509 353z"/>
<path style="fill:#babab5; stroke:none;" d="M500 354L500 355L504 355L500 354z"/>
<path style="fill:#999a99; stroke:none;" d="M504 354L504 355L509 355L504 354z"/>
<path style="fill:#babab5; stroke:none;" d="M492 355L492 356L498 356L492 355z"/>
<path style="fill:#999a99; stroke:none;" d="M498 355L498 356L503 356L498 355z"/>
<path style="fill:#babab5; stroke:none;" d="M484 356L484 357L491 357L484 356z"/>
<path style="fill:#999a99; stroke:none;" d="M491 356L491 357L498 357L491 356z"/>
<path style="fill:#babab5; stroke:none;" d="M477 357L477 358L483 358L477 357z"/>
<path style="fill:#999a99; stroke:none;" d="M434 363L434 364L491 358L473 358.845L434 363z"/>
<path style="fill:#f1f1f2; stroke:none;" d="M624 359L624 360L640 360L640 357L624 359z"/>
<path style="fill:#babab5; stroke:none;" d="M469 358L469 359L476 359L469 358M462 359L462 360L468 360L462 359M455 360L455 361L460 361L455 360M446 361L446 362L453 362L446 361M437 362L437 363L444 363L437 362M351 363L351 364L434 364L408 363L351 363M283.667 364.333L284.333 364.667L283.667 364.333M286 364L287 365L286 364M288 364L288 365L343 365L325 364L288 364z"/>
<path style="fill:#999a99; stroke:none;" d="M343 364L343 365L433 365L405 364L343 364M274 365L274 366L315 366C304.25 361.489 285.696 365 274 365M319 365L319 366L323 366L319 365M324 365L324 366L328 366L324 365z"/>
<path style="fill:#f1f1f2; stroke:none;" d="M160 375L160 380L180 380L160 375M440 379L440 380L460 380L460 377L440 379z"/>
<path style="fill:#babab5; stroke:none;" d="M209 380L209 381L220 382L220 380L209 380M320 380L320 383L340 381L320 380z"/>
</svg>
